<?xml version="1.0" encoding="UTF-8" standalone="no"?>
<svg
   id="a"
   viewBox="0 0 1032 336.00001"
   version="1.1"
   sodipodi:docname="6487c335b7d6aa26ff158eda_Horizontal_red_black.svg"
   width="1032"
   height="336"
   inkscape:version="1.3.2 (091e20e, 2023-11-25, custom)"
   xmlns:inkscape="http://www.inkscape.org/namespaces/inkscape"
   xmlns:sodipodi="http://sodipodi.sourceforge.net/DTD/sodipodi-0.dtd"
   xmlns="http://www.w3.org/2000/svg"
   xmlns:svg="http://www.w3.org/2000/svg">
  <sodipodi:namedview
     id="namedview20"
     pagecolor="#ffffff"
     bordercolor="#000000"
     borderopacity="0.25"
     inkscape:showpageshadow="2"
     inkscape:pageopacity="0.0"
     inkscape:pagecheckerboard="0"
     inkscape:deskcolor="#d1d1d1"
     showgrid="false"
     inkscape:zoom="1.1609551"
     inkscape:cx="509.49431"
     inkscape:cy="108.96201"
     inkscape:window-width="1920"
     inkscape:window-height="1009"
     inkscape:window-x="1912"
     inkscape:window-y="-8"
     inkscape:window-maximized="1"
     inkscape:current-layer="a" />
  <defs
     id="defs1">
    <style
       id="style1">.e{fill:none;}.f{fill:#ed1c24;}.g{fill:#231f20;}</style>
  </defs>
  <path
     class="e"
     d="m 89.52,137.75 c -0.24,-0.6 -0.43,-1.22 -0.59,-1.84 H 63.62 c -2.05,8.37 -3.39,18.37 -3.71,30.25 h 39.47 v -19.74 c -0.67,-0.18 -1.34,-0.39 -1.99,-0.67 -3.6,-1.53 -6.4,-4.37 -7.87,-8 z"
     id="path1" />
  <path
     class="e"
     d="m 170.73,166.16 h 11.45 c -0.73,-10.81 -3.63,-21.04 -8.28,-30.25 h -24.56 c 0.8,3.4 1.48,7.03 2.03,10.89 7.88,1.65 14.82,7.06 18.07,15.06 0.57,1.41 1,2.84 1.3,4.29 z"
     id="path2" />
  <path
     class="e"
     d="m 106.69,212.04 v 38.01 c 8.07,-2.19 25.05,-10.06 33.71,-38.01 z"
     id="path3" />
  <path
     class="e"
     d="m 128.41,245.8 c -0.57,0.52 -1.13,0.99 -1.7,1.47 18.81,-5.89 34.6,-18.61 44.52,-35.23 h -23.2 c -4.08,14.22 -10.62,25.52 -19.62,33.76 z"
     id="path4" />
  <path
     class="e"
     d="m 162.66,164.61 c -1.96,-4.83 -5.82,-8.32 -10.38,-9.96 -1.91,-0.69 -3.93,-1.07 -5.99,-1.07 -0.48,0 -0.96,0.03 -1.44,0.07 -1.73,0.15 -3.47,0.54 -5.16,1.23 -4.37,1.76 -7.78,5.13 -9.62,9.46 -0.26,0.59 -0.47,1.2 -0.66,1.82 -0.72,2.39 -0.92,4.87 -0.6,7.31 0.2,1.48 0.57,2.94 1.15,4.36 2.58,6.38 8.49,10.43 14.92,10.96 2.46,0.2 4.98,-0.11 7.43,-0.99 0.2,-0.07 0.41,-0.15 0.61,-0.23 4.37,-1.76 7.78,-5.12 9.62,-9.46 0.64,-1.49 1.05,-3.05 1.26,-4.63 0.31,-2.44 0.12,-4.92 -0.6,-7.31 -0.16,-0.52 -0.34,-1.04 -0.54,-1.55 z"
     id="path5" />
  <path
     class="e"
     d="m 62.3,224.54 c -0.78,0.09 -1.56,0.15 -2.34,0.15 -2.44,0 -4.87,-0.49 -7.17,-1.47 -4.53,-1.92 -8.03,-5.48 -9.87,-10.04 -0.16,-0.38 -0.29,-0.77 -0.42,-1.15 h -7.64 c 9.84,16.51 25.5,29.16 44.13,35.1 -5.91,-4.97 -11.9,-12.18 -16.69,-22.6 z"
     id="path6" />
  <path
     class="e"
     d="m 136.96,148.1 c 2.29,-0.93 4.63,-1.49 6.98,-1.7 -0.57,-3.75 -1.28,-7.24 -2.08,-10.49 h -24.57 c -0.18,0.7 -0.4,1.39 -0.68,2.07 -1.53,3.6 -4.37,6.4 -8,7.87 -0.62,0.25 -1.26,0.44 -1.91,0.61 v 19.71 h 15.19 c 0.33,-1.58 0.82,-3.15 1.47,-4.68 2.6,-6.14 7.43,-10.89 13.61,-13.38 z"
     id="path7" />
  <path
     class="e"
     d="m 106.69,173.47 v 31.26 h 35.66 c 0.62,-2.73 1.17,-5.63 1.64,-8.7 -8.97,-0.86 -17.19,-6.54 -20.79,-15.46 -0.93,-2.3 -1.51,-4.69 -1.73,-7.1 H 106.7 Z"
     id="path8" />
  <path
     class="e"
     d="m 88.93,128.6 c 0.18,-0.7 0.4,-1.39 0.68,-2.07 1.53,-3.6 4.37,-6.4 8,-7.86 0.58,-0.24 1.17,-0.42 1.77,-0.58 V 92.76 c -7.59,1.7 -24.6,8.54 -33.65,35.84 h 23.19 z"
     id="path9" />
  <path
     class="e"
     d="m 116.69,126.76 c 0.24,0.6 0.43,1.22 0.59,1.84 H 139.7 C 130.83,102.25 114.46,94.93 106.69,92.94 v 25.12 c 0.73,0.18 1.44,0.41 2.13,0.7 3.6,1.53 6.4,4.37 7.87,8 z"
     id="path10" />
  <path
     class="e"
     d="m 60.57,187.91 c 2.23,0.08 4.45,0.56 6.56,1.46 4.53,1.91 8.03,5.48 9.87,10.03 0.7,1.73 1.12,3.53 1.28,5.33 H 99.37 V 173.47 H 59.84 c 0.05,5.15 0.3,9.95 0.72,14.44 z"
     id="path11" />
  <path
     class="e"
     d="m 147.36,128.6 h 22.35 c -9.86,-15.27 -24.81,-26.94 -42.44,-32.61 7.54,6.43 15.12,16.59 20.1,32.61 z"
     id="path12" />
  <path
     class="e"
     d="m 53.06,189.24 c 0.1,-0.04 0.21,-0.07 0.31,-0.12 -0.48,-4.87 -0.77,-10.08 -0.82,-15.66 h -28.8 c 0.27,11.14 2.84,21.71 7.25,31.26 h 10.64 c 0.58,-6.67 4.79,-12.8 11.42,-15.48 z"
     id="path13" />
  <path
     class="e"
     d="m 76.89,213.48 c -1.6,3.76 -4.34,6.8 -7.84,8.78 9.4,20.25 23.53,26.2 30.33,27.93 V 212.04 H 77.42 c -0.15,0.49 -0.33,0.96 -0.53,1.44 z"
     id="path14" />
  <path
     class="e"
     d="m 54.31,196.77 c -2.94,1.74 -4.84,4.71 -5.31,7.96 -0.28,1.88 -0.08,3.84 0.68,5.72 0.22,0.56 0.5,1.09 0.81,1.59 1.2,1.98 2.97,3.54 5.14,4.46 1.21,0.52 2.48,0.79 3.76,0.86 1.59,0.08 3.2,-0.17 4.72,-0.79 0.77,-0.3 1.49,-0.7 2.15,-1.17 1.28,-0.88 2.35,-2.02 3.15,-3.36 0.28,-0.45 0.53,-0.92 0.74,-1.41 0.8,-1.89 1.04,-3.92 0.76,-5.9 -0.13,-0.88 -0.35,-1.75 -0.69,-2.59 -1.11,-2.74 -3.23,-4.89 -5.95,-6.05 -0.92,-0.38 -1.87,-0.63 -2.83,-0.77 -0.5,-0.07 -1,-0.12 -1.5,-0.12 -1.41,0 -2.81,0.28 -4.16,0.82 -0.52,0.21 -1.02,0.46 -1.49,0.75 z"
     id="path15" />
  <path
     class="e"
     d="m 77.16,96.71 c 0.1,-0.09 0.2,-0.17 0.3,-0.25 -17.04,5.82 -31.47,17.28 -41.08,32.15 h 21.7 c 4.11,-13.46 10.46,-24.14 19.08,-31.9 z"
     id="path16" />
  <path
     class="e"
     d="M 56.11,135.91 H 32.18 c -4.65,9.21 -7.56,19.44 -8.28,30.25 h 28.69 c 0.28,-11.15 1.45,-21.24 3.52,-30.25 z"
     id="path17" />
  <path
     class="e"
     d="m 109.47,135.91 c 0.15,-0.25 0.28,-0.51 0.4,-0.78 0.76,-1.81 0.78,-3.8 0.05,-5.62 -0.13,-0.31 -0.28,-0.62 -0.45,-0.9 -0.66,-1.16 -1.61,-2.1 -2.78,-2.76 -0.23,-0.13 -0.47,-0.25 -0.72,-0.36 -0.92,-0.39 -1.89,-0.59 -2.86,-0.59 -0.97,0 -1.87,0.18 -2.76,0.54 -0.34,0.13 -0.66,0.3 -0.97,0.49 -1.1,0.65 -2.01,1.55 -2.64,2.67 -0.15,0.25 -0.28,0.51 -0.4,0.78 -0.76,1.81 -0.78,3.81 -0.05,5.62 0.13,0.32 0.28,0.62 0.45,0.9 0.63,1.11 1.54,2.03 2.64,2.68 0.28,0.16 0.56,0.31 0.86,0.44 1.81,0.77 3.81,0.78 5.62,0.05 0.29,-0.12 0.57,-0.26 0.83,-0.41 1.17,-0.65 2.12,-1.6 2.78,-2.76 z"
     id="path18" />
  <path
     class="f"
     d="m 168.27,184.2 c -0.14,-0.15 -0.29,-0.28 -0.44,-0.4 0.54,-0.91 1.02,-1.86 1.44,-2.85 1.03,-2.42 1.65,-4.94 1.89,-7.49 h 11.17 c -0.14,5.87 -0.91,11.58 -2.26,17.06 l 5.95,5.95 c 2.38,-7.9 3.68,-16.27 3.68,-24.94 0,-47.78 -38.88,-86.66 -86.66,-86.66 -0.03,0 -0.07,0 -0.1,0 h -0.04 c -0.06,0 -0.12,0 -0.17,0 -0.06,0 -0.1,0 -0.12,0 v 0 c -47.58,0.24 -86.22,39.01 -86.22,86.65 0,23.84 9.68,45.45 25.31,61.13 15.63,15.68 37.21,25.42 61.03,25.51 h 0.02 c 0.1,0 0.2,0 0.3,0 31.83,0 59.68,-17.25 74.75,-42.89 l -2.65,-2.65 -0.6,-0.6 -2.1,-2.1 -5.21,-5.21 h -17.38 c 0.63,-2.92 1.15,-5.96 1.59,-9.1 1.43,-0.3 2.84,-0.73 4.24,-1.28 1.65,-0.67 3.19,-1.5 4.63,-2.47 0.08,-0.05 0.15,-0.12 0.23,-0.17 0.04,0.04 0.07,0.08 0.12,0.12 l 23.99,23.99 c 2.1,2.1 5.52,2.1 7.62,0 2.1,-2.1 2.1,-5.52 0,-7.62 l -23.99,-23.99 z m 1.43,-55.6 h -22.35 c -4.98,-16.02 -12.56,-26.18 -20.1,-32.61 17.63,5.66 32.58,17.34 42.44,32.61 z m -47.83,37.56 h -15.19 v -19.71 c 0.65,-0.17 1.28,-0.36 1.91,-0.61 3.63,-1.47 6.47,-4.26 8,-7.87 0.28,-0.67 0.5,-1.36 0.68,-2.07 h 24.57 c 0.81,3.25 1.51,6.74 2.08,10.49 -2.34,0.22 -4.69,0.78 -6.98,1.7 -6.17,2.49 -11,7.25 -13.61,13.38 -0.65,1.53 -1.14,3.1 -1.47,4.68 z m 22.11,29.87 c -0.46,3.07 -1.02,5.97 -1.64,8.7 h -35.66 v -31.26 h 14.77 c 0.22,2.41 0.8,4.8 1.73,7.1 3.6,8.92 11.82,14.61 20.79,15.46 z M 106.69,92.94 c 7.77,1.99 24.14,9.31 33.01,35.66 h -22.42 c -0.16,-0.62 -0.35,-1.24 -0.59,-1.84 -1.47,-3.63 -4.26,-6.47 -7.87,-8 -0.7,-0.29 -1.41,-0.51 -2.13,-0.7 z m -7.31,-0.18 v 25.33 c -0.59,0.16 -1.19,0.34 -1.77,0.58 -3.63,1.47 -6.47,4.26 -8,7.86 -0.28,0.67 -0.5,1.36 -0.68,2.07 H 65.74 C 74.78,101.29 91.79,94.45 99.39,92.76 Z M 36.37,128.6 c 9.61,-14.88 24.04,-26.33 41.08,-32.15 -0.1,0.09 -0.2,0.17 -0.3,0.25 -8.62,7.75 -14.98,18.44 -19.08,31.9 m -25.89,7.3 h 23.93 c -2.07,9.01 -3.24,19.1 -3.52,30.25 H 23.9 c 0.73,-10.81 3.63,-21.04 8.28,-30.25 z m 27.77,59.3 c 0.5,0 1,0.05 1.5,0.12 0.96,0.14 1.91,0.38 2.83,0.77 2.72,1.16 4.84,3.31 5.95,6.05 0.34,0.84 0.56,1.71 0.69,2.59 0.28,1.98 0.04,4 -0.76,5.9 -0.21,0.49 -0.46,0.96 -0.74,1.41 -0.81,1.34 -1.88,2.48 -3.15,3.36 -0.67,0.46 -1.39,0.86 -2.15,1.17 -1.52,0.62 -3.13,0.87 -4.72,0.79 -1.28,-0.07 -2.55,-0.34 -3.76,-0.86 -2.17,-0.92 -3.95,-2.48 -5.14,-4.46 -0.3,-0.5 -0.58,-1.03 -0.81,-1.59 -0.76,-1.88 -0.96,-3.84 -0.68,-5.72 0.46,-3.25 2.37,-6.22 5.31,-7.96 0.47,-0.28 0.96,-0.54 1.49,-0.75 1.34,-0.54 2.75,-0.82 4.16,-0.82 z M 23.74,173.46 h 28.8 c 0.05,5.58 0.34,10.79 0.82,15.66 -0.1,0.04 -0.21,0.08 -0.31,0.12 -6.62,2.68 -10.84,8.81 -11.42,15.48 H 30.99 c -4.42,-9.55 -6.98,-20.12 -7.25,-31.26 z m 11.1,38.57 h 7.64 c 0.13,0.38 0.26,0.77 0.42,1.15 1.84,4.55 5.35,8.12 9.87,10.04 2.31,0.98 4.74,1.47 7.17,1.47 0.78,0 1.56,-0.06 2.34,-0.15 4.79,10.41 10.78,17.63 16.69,22.6 -18.63,-5.95 -34.29,-18.6 -44.13,-35.1 z m 64.53,38.15 c -6.8,-1.73 -20.93,-7.68 -30.33,-27.93 3.5,-1.98 6.24,-5.02 7.84,-8.78 0.2,-0.47 0.38,-0.95 0.53,-1.44 h 21.96 z m 0,-45.46 H 78.28 c -0.16,-1.81 -0.59,-3.6 -1.28,-5.33 -1.84,-4.55 -5.35,-8.12 -9.87,-10.03 -2.12,-0.9 -4.34,-1.38 -6.56,-1.46 -0.41,-4.49 -0.67,-9.29 -0.72,-14.44 h 39.53 v 31.26 z m 0,-38.57 H 59.9 c 0.31,-11.88 1.65,-21.88 3.71,-30.25 h 25.31 c 0.16,0.62 0.35,1.24 0.59,1.84 1.47,3.63 4.26,6.47 7.87,8 0.65,0.28 1.32,0.49 1.99,0.67 z m 0.86,-27.14 c -0.3,-0.12 -0.58,-0.28 -0.86,-0.44 -1.1,-0.65 -2.01,-1.57 -2.64,-2.68 -0.17,-0.28 -0.32,-0.58 -0.45,-0.9 -0.73,-1.81 -0.71,-3.81 0.05,-5.62 0.12,-0.28 0.25,-0.53 0.4,-0.78 0.63,-1.12 1.54,-2.02 2.64,-2.67 0.31,-0.18 0.63,-0.36 0.97,-0.49 0.88,-0.36 1.82,-0.54 2.76,-0.54 0.94,0 1.94,0.2 2.86,0.59 0.25,0.11 0.49,0.22 0.72,0.36 1.17,0.65 2.12,1.6 2.78,2.76 0.17,0.28 0.32,0.59 0.45,0.9 0.73,1.82 0.71,3.82 -0.05,5.62 -0.12,0.28 -0.25,0.53 -0.4,0.78 -0.66,1.16 -1.61,2.1 -2.78,2.76 -0.27,0.15 -0.54,0.28 -0.83,0.41 -1.81,0.73 -3.82,0.72 -5.62,-0.05 z m 6.46,111.03 v -38.01 h 33.71 c -8.66,27.95 -25.64,35.82 -33.71,38.01 z m 64.54,-38.01 c -9.91,16.62 -25.71,29.34 -44.52,35.23 0.57,-0.48 1.13,-0.95 1.7,-1.47 9,-8.24 15.54,-19.54 19.62,-33.76 z m -7.42,-38.57 c -0.21,1.57 -0.62,3.13 -1.26,4.63 -1.84,4.34 -5.25,7.7 -9.62,9.46 -0.2,0.09 -0.41,0.16 -0.61,0.23 -2.45,0.88 -4.98,1.2 -7.43,0.99 -6.43,-0.53 -12.34,-4.58 -14.92,-10.96 -0.57,-1.41 -0.95,-2.88 -1.15,-4.36 -0.32,-2.44 -0.12,-4.92 0.6,-7.31 0.19,-0.62 0.4,-1.23 0.66,-1.82 1.84,-4.34 5.25,-7.7 9.62,-9.46 1.69,-0.68 3.42,-1.08 5.16,-1.23 0.48,-0.04 0.96,-0.07 1.44,-0.07 2.06,0 4.08,0.38 5.99,1.07 4.55,1.64 8.42,5.13 10.38,9.96 0.2,0.52 0.38,1.03 0.54,1.55 0.72,2.39 0.91,4.87 0.6,7.31 z m -12.44,-26.67 c -0.55,-3.87 -1.23,-7.49 -2.03,-10.89 h 24.56 c 4.65,9.21 7.56,19.44 8.28,30.25 h -11.45 c -0.3,-1.45 -0.73,-2.89 -1.3,-4.29 -3.24,-8.01 -10.18,-13.42 -18.07,-15.06 z"
     id="path19" />
  <path
     class="g"
     d="m 229.96,123.15 -4.12,27.73 h 8.23 l -4.12,-27.73 z m 67.95,0.15 h -5.51 v 16.16 h 5.51 c 6.99,0 7.77,-5.83 7.77,-8.08 0,-2.25 -0.78,-8.08 -7.77,-8.08 z m 111.52,7.3 c 0,-1.94 -0.62,-7.3 -7.69,-7.3 h -3.96 v 14.6 h 4.11 c 7.07,0 7.54,-5.36 7.54,-7.3 z m -6.14,15.07 h -5.51 v 15.54 h 5.51 c 6.37,0 7.54,-5.05 7.54,-7.77 0,-2.72 -1.16,-7.77 -7.54,-7.77 z m -21.17,72.11 h 5.67 l -2.83,-19.08 -2.83,19.08 z m -44.2,-19.51 c -4.17,0 -4.22,3.8 -4.22,5.35 v 16.47 c 0,1.55 0.05,5.34 4.22,5.34 4.17,0 4.22,-3.79 4.22,-5.34 v -16.47 c 0,-1.55 -0.05,-5.35 -4.22,-5.35 z m 26.15,-47.39 h 8.23 l -4.11,-27.73 z m 81.49,47.29 c -2.67,0 -4.33,1.6 -4.33,6.25 0,4.65 1.66,6.25 4.33,6.25 2.67,0 4.33,-1.6 4.33,-6.25 0,-4.65 -1.66,-6.25 -4.33,-6.25 z m 70.55,0 c -2.67,0 -4.33,1.6 -4.33,6.25 0,4.65 1.66,6.25 4.33,6.25 2.67,0 4.33,-1.6 4.33,-6.25 0,-4.65 -1.66,-6.25 -4.33,-6.25 z m -23.2,27.42 c 4.33,0 4.44,-3.96 4.44,-5.51 v -9.78 l -8.76,11.33 c 0,1.71 1.12,3.96 4.33,3.96 z m 75.64,-103.06 c -6.06,0 -6.14,5.52 -6.14,7.77 v 23.92 c 0,2.25 0.08,7.77 6.14,7.77 6.06,0 6.14,-5.52 6.14,-7.77 V 130.3 c 0,-2.25 -0.08,-7.77 -6.14,-7.77 z m 343.26,0 c -6.06,0 -6.14,5.52 -6.14,7.77 v 23.92 c 0,2.25 0.08,7.77 6.14,7.77 6.06,0 6.14,-5.52 6.14,-7.77 V 130.3 c 0,-2.25 -0.08,-7.77 -6.14,-7.77 z m -307.15,0.78 h -5.2 v 16.16 h 5.2 c 6.99,0 7.77,-5.83 7.77,-8.08 0,-2.25 -0.78,-8.08 -7.77,-8.08 z m -111.76,74.8 c -4.33,0 -4.44,3.96 -4.44,5.51 v 9.84 l 8.82,-11.39 c 0,-1.71 -1.18,-3.96 -4.38,-3.96 z m -23.52,0 c -4.33,0 -4.44,3.96 -4.44,5.51 v 9.84 l 8.82,-11.39 c 0,-1.71 -1.18,-3.96 -4.38,-3.96 z m 242.45,-74.8 h -5.2 v 16.16 h 5.2 c 6.99,0 7.77,-5.83 7.77,-8.08 0,-2.25 -0.78,-8.08 -7.77,-8.08 z M 469.38,225.59 c 4.33,0 4.44,-3.96 4.44,-5.51 v -9.78 l -8.76,11.33 c 0,1.71 1.12,3.96 4.33,3.96 z M 223.03,168.98 h -8.16 l 8.23,-53.44 h 13.67 l 8.23,53.44 h -8.15 l -1.55,-10.49 h -10.72 z m 56.93,-8.54 h -20.04 v -44.89 h -8.54 v 53.44 h 28.58 v -8.54 z m 17.94,-13.2 h -5.51 v 21.75 h -8.08 v -53.44 h 13.59 c 11.26,0 15.92,6.91 15.92,15.84 0,8.93 -4.66,15.84 -15.92,15.84 z m 40.46,21.75 h 8.54 v -53.44 h -8.54 v 22.37 h -11.81 v -22.37 h -8.54 v 53.44 h 8.54 V 146 h 11.81 z m 36.73,0 -1.55,-10.49 h -10.72 l -1.55,10.49 h -8.16 l 8.23,-53.44 h 13.67 l 8.23,53.44 z m 43.88,-15.53 c 0,8.08 -4.04,15.53 -15.84,15.53 h -13.51 v -53.44 h 12.35 c 11.81,0 15.3,8.08 15.3,15.07 0,4.89 -1.94,7.84 -4.5,10.1 3.73,2.33 6.21,6.06 6.21,12.74 z m 35.1,7.46 h -20.2 v -14.6 h 17.71 v -8.08 h -17.71 v -14.6 h 20.2 v -8.08 H 425.33 V 169 h 28.74 z m 15.45,8.08 h 8.54 v -45.13 h 10.17 v -8.31 h -28.89 v 8.31 h 10.17 V 169 Z m 67.1,-23.61 -5.36,-22.06 -5.36,22.06 -2.1,-29.83 h -8.23 l 3.81,53.44 h 7.92 l 3.96,-21.13 3.96,21.13 h 7.92 l 3.81,-53.44 h -8.23 z m 46.21,-15.07 v 23.92 c 0,9.17 -4.66,15.77 -14.29,15.77 -9.63,0 -14.29,-6.6 -14.29,-15.77 v -23.92 c 0,-9.16 4.66,-15.77 14.29,-15.77 9.63,0 14.29,6.6 14.29,15.77 z m 29.67,15.46 7.92,23.22 h -8.7 l -7.22,-21.75 h -5.05 V 169 h -8.08 v -53.44 h 13.28 c 11.26,0 15.92,6.91 15.92,15.84 0,6.45 -2.41,11.88 -8.08,14.37 z m 36.35,-30.21 -12.27,21.75 v -21.75 h -7.92 v 53.44 h 7.92 v -15.69 l 3.81,-6.76 8.47,22.45 h 8.85 l -11.96,-31.69 12.27,-21.75 h -9.16 z m 14.13,53.44 h 28.74 v -8.08 h -20.2 v -14.6 h 17.71 v -8.08 h -17.71 v -14.6 h 20.2 v -8.08 h -28.74 z m 56.7,-23.22 7.92,23.22 h -8.7 l -7.22,-21.75 h -5.05 v 21.75 h -8.08 v -53.44 h 13.28 c 11.26,0 15.92,6.91 15.92,15.84 0,6.45 -2.41,11.88 -8.08,14.37 z m 27.49,-31.22 c -9.94,0 -14.29,6.37 -14.29,15.22 0,9.63 5.28,13.05 13.67,16.78 5.59,2.48 6.99,4.74 6.99,8.62 v 0.31 c 0,1.79 -0.47,6.6 -6.37,6.6 -6.21,0 -6.45,-5.28 -6.45,-7.85 v -4.81 h -7.85 v 4.81 c 0,7.61 2.64,15.77 14.29,15.77 10.56,0 14.29,-6.6 14.29,-15.22 0,-10.33 -5.28,-12.82 -13.67,-16.7 -4.19,-1.94 -6.99,-4.2 -6.99,-8.7 v -0.31 c 0,-1.79 0.47,-6.6 6.37,-6.6 6.21,0 6.45,5.28 6.45,7.84 v 1.87 h 7.84 v -1.87 c 0,-7.61 -2.64,-15.77 -14.29,-15.77 z m 65,39.69 c 0,2.25 -0.16,7.61 -5.98,7.61 -5.82,0 -5.98,-5.36 -5.98,-7.61 v -38.68 h -8.31 v 38.68 c 0,9.32 4.58,15.77 14.29,15.77 9.71,0 14.29,-6.6 14.29,-15.77 v -38.68 h -8.31 z m 35.96,-7.14 -12.43,-31.53 h -8.08 v 53.44 h 8.08 V 137.5 l 12.43,31.53 h 8.08 v -53.44 h -8.08 z m 15.22,-23.61 h 10.02 v 37.59 h -10.02 v 7.92 h 28.58 v -7.92 h -10.02 v -37.59 h 10.02 v -7.92 h -28.58 z m 62.75,6.83 v 23.92 c 0,9.17 -4.66,15.77 -14.29,15.77 -9.63,0 -14.29,-6.6 -14.29,-15.77 v -23.92 c 0,-9.16 4.66,-15.77 14.29,-15.77 9.63,0 14.29,6.6 14.29,15.77 z m 27.65,-14.76 v 31.53 l -12.43,-31.53 h -8.08 v 53.44 h 8.08 v -31.53 l 12.43,31.53 h 8.08 v -53.44 z m -725.91,77.18 c -6.63,0 -9.83,4.49 -9.83,10.85 v 16.47 c 0,4.97 1.92,10.85 9.83,10.85 6.63,0 9.84,-4.54 9.84,-10.85 v -1.66 h -5.56 v 1.66 c 0,1.55 -0.05,5.34 -4.28,5.34 -4.23,0 -4.27,-3.79 -4.27,-5.34 v -16.47 c 0,-1.55 0.05,-5.35 4.27,-5.35 4.22,0 4.28,3.8 4.28,5.35 v 1.6 h 5.56 v -1.6 c 0,-5.02 -1.87,-10.85 -9.84,-10.85 z m 27.2,21.22 -3.69,-15.18 -3.69,15.18 -1.44,-20.53 h -5.67 l 2.62,36.78 h 5.45 l 2.72,-14.54 2.73,14.54 h 5.45 l 2.62,-36.78 h -5.66 z m 56.49,-20.53 h -5.88 v 36.78 h 19.67 v -5.88 h -13.79 v -30.89 z m 36.24,10.16 v 16.47 c 0,6.31 -3.21,10.85 -9.84,10.85 -6.63,0 -9.83,-4.54 -9.83,-10.85 v -16.47 c 0,-6.31 3.21,-10.85 9.83,-10.85 6.62,0 9.84,4.54 9.84,10.85 z m 13.68,-10.85 c -6.63,0 -9.83,4.49 -9.83,10.85 v 16.47 c 0,4.97 1.92,10.85 9.83,10.85 6.63,0 9.84,-4.54 9.84,-10.85 v -1.66 h -5.56 v 1.66 c 0,1.55 -0.05,5.34 -4.28,5.34 -4.23,0 -4.27,-3.79 -4.27,-5.34 v -16.47 c 0,-1.55 0.05,-5.35 4.27,-5.35 4.22,0 4.28,3.8 4.28,5.35 v 1.6 h 5.56 v -1.6 c 0,-5.02 -1.87,-10.85 -9.84,-10.85 z m 28.22,0.7 5.67,36.78 h -5.61 l -1.07,-7.22 h -7.38 l -1.07,7.22 h -5.61 l 5.66,-36.78 z m -117.62,24.32 h 5.67 l -2.83,-19.08 -2.83,19.08 z m 7.54,-24.32 5.67,36.78 h -5.61 l -1.07,-7.22 h -7.38 l -1.07,7.22 h -5.61 l 5.66,-36.78 z m 124.94,0 h -5.88 v 36.78 h 19.67 v -5.88 h -13.79 v -30.89 z m 50.99,10.96 v 15.56 c 0,5.99 -2.41,10.96 -9.89,10.96 -7.48,0 -9.62,-4.38 -9.62,-10.26 v -0.59 h 5.35 v 0.32 c 0,2.3 0.32,5.29 4.27,5.29 3.58,0 4.33,-2.67 4.33,-5.72 v -5.83 c -0.43,0.43 -2.14,1.87 -4.92,1.87 -6.95,0 -9.41,-5.13 -9.41,-11.6 0,-4.81 1.93,-11.65 9.94,-11.65 8.01,0 9.94,6.84 9.94,11.65 z m 23.73,-0.8 v 16.47 c 0,6.36 -3.21,10.85 -9.84,10.85 -6.63,0 -9.83,-4.49 -9.83,-10.85 v -16.47 c 0,-6.36 3.21,-10.85 9.83,-10.85 6.62,0 9.84,4.49 9.84,10.85 z m 23.52,0 v 16.47 c 0,6.36 -3.21,10.85 -9.84,10.85 -6.63,0 -9.83,-4.49 -9.83,-10.85 v -16.47 c 0,-6.36 3.21,-10.85 9.83,-10.85 6.62,0 9.84,4.49 9.84,10.85 z m 23.3,0.8 v 15.56 c 0,5.99 -2.41,10.96 -9.89,10.96 -7.48,0 -9.62,-4.38 -9.62,-10.26 v -0.59 h 5.35 v 0.32 c 0,2.3 0.32,5.29 4.27,5.29 3.58,0 4.33,-2.67 4.33,-5.72 v -5.83 c -0.43,0.43 -2.14,1.87 -4.92,1.87 -6.95,0 -9.41,-5.13 -9.41,-11.6 0,-4.81 1.93,-11.65 9.94,-11.65 8.01,0 9.94,6.84 9.94,11.65 z"
     id="path20" />
</svg>
